<svg width="407" height="80" viewBox="0 0 407 80" fill="none" xmlns="http://www.w3.org/2000/svg">
<path d="M44.8919 2.46C49.0941 2.46 53.3817 2.85292 57.7547 3.63871C62.1277 4.39038 66.3813 5.55201 70.5153 7.1237C74.6488 8.69533 78.5436 10.677 82.1992 13.0686C85.8549 15.426 89.0492 18.1935 91.7823 21.371C94.5153 24.5484 96.6681 28.1359 98.2393 32.1333C99.8453 36.1308 100.648 40.5553 100.648 45.407C100.648 50.2583 99.7941 54.7514 98.0855 58.8856C96.3776 63.0199 93.9857 66.5897 90.9109 69.5969C87.8362 72.6035 84.1634 74.9608 79.8933 76.6688C75.6226 78.3774 70.9248 79.2317 65.8004 79.2317C63.3749 79.2317 60.864 79.0438 58.267 78.6679C55.6707 78.3261 53.0742 77.7794 50.4777 77.0276C47.8813 76.2758 45.3189 75.3538 42.7907 74.2602C40.2968 73.1325 37.9053 71.8004 35.6163 70.2626C32.9173 72.9281 29.7913 75.012 26.2382 76.515C22.7192 77.9844 18.9954 78.7191 15.0665 78.7191C12.9483 78.7191 10.9667 78.4799 9.12187 78.0015C7.27697 77.5231 5.67125 76.8397 4.30473 75.9518C2.9723 75.0633 1.9132 73.9869 1.12742 72.7231C0.37581 71.4587 7.06687e-08 70.0576 7.06687e-08 68.5205C7.06687e-08 67.1877 0.32456 65.941 0.973686 64.7792C1.65697 63.6173 2.59649 62.5927 3.79223 61.7043C5.02213 60.8158 6.47414 60.1152 8.14819 59.6033C9.85642 59.0907 11.7184 58.8344 13.7341 58.8344C19.6786 58.8344 26.7165 61.0208 34.8475 65.3943C36.3508 63.5148 37.5807 61.3967 38.5373 59.0394C39.5964 56.4087 40.4163 53.7091 40.9972 50.9417C41.6121 48.1402 42.1416 45.3557 42.5858 42.5884C43.0641 39.8207 43.5424 37.1216 44.0206 34.4908C44.5331 31.86 45.2164 29.383 46.0705 27.0597C46.9588 24.7364 48.1033 22.618 49.5041 20.7047C50.9389 18.7573 52.8009 17.1002 55.0899 15.7335C55.4316 15.5627 55.739 15.4773 56.0123 15.4773C56.4906 15.4773 56.9348 15.6482 57.3447 15.9898C57.7888 16.3315 58.0107 16.8098 58.0107 17.4248C58.0107 18.1423 57.6864 18.6889 57.0373 19.0648C55.2265 20.1239 53.7404 21.4564 52.5788 23.0622C51.4514 24.6338 50.5119 26.4105 49.7603 28.3922C49.0086 30.3738 48.4108 32.5092 47.9666 34.7983C47.5225 37.0874 47.0955 39.4791 46.6855 41.9733C46.3438 44.023 45.968 46.1759 45.5581 48.4306C45.1481 50.6513 44.6357 52.8725 44.0206 55.0931C43.4057 57.2795 42.62 59.4324 41.6634 61.5505C40.7409 63.6344 39.5964 65.5651 38.2298 67.3415C38.2982 67.3757 38.3323 67.4099 38.3323 67.444C38.3665 67.444 38.4177 67.4611 38.486 67.4953C42.8249 70.0918 47.3346 72.0567 52.0151 73.3888C56.6956 74.7216 61.2734 75.3879 65.7491 75.3879C70.6008 75.3879 74.9392 74.5849 78.7657 72.9788C82.6264 71.3733 85.8891 69.221 88.5538 66.5214C91.2185 63.7882 93.2516 60.6107 94.652 56.989C96.053 53.3674 96.7535 49.5413 96.7535 45.5095C96.7535 41.4094 96.0701 37.6 94.7033 34.0808C93.337 30.5275 91.4577 27.2988 89.0663 24.3947C86.7092 21.4906 83.8901 18.911 80.6103 16.6561C77.3647 14.4011 73.8464 12.5219 70.054 11.0186C66.2959 9.48112 62.3327 8.31949 58.1645 7.53365C54.0308 6.71369 49.8799 6.30368 45.7118 6.30368C40.1088 6.30368 34.9842 6.78204 30.3379 7.73868C25.7257 8.66116 21.7455 10.0278 18.3975 11.8386C15.0836 13.6494 12.5041 15.8702 10.6592 18.501C8.8144 21.1318 7.89198 24.1214 7.89198 27.4697C7.89198 29.383 8.16528 31.0742 8.71189 32.5433C9.29267 34.0125 10.0101 35.2937 10.8643 36.387C11.7525 37.4462 12.7091 38.3516 13.7341 39.1032C14.759 39.8549 15.7156 40.4699 16.6038 40.9482C17.4921 41.3923 18.2437 41.717 18.8587 41.922C19.5078 42.127 19.8836 42.2466 19.9861 42.2808C20.4302 42.3833 20.7719 42.6225 21.0111 42.9984C21.2844 43.3402 21.421 43.7325 21.421 44.1768C21.421 44.7577 21.216 45.202 20.806 45.5095C20.396 45.8171 19.952 45.9708 19.4736 45.9708C18.7903 45.9708 17.9362 45.8171 16.9113 45.5095C15.8864 45.1678 14.7932 44.6723 13.6315 44.023C12.5041 43.3402 11.3596 42.5029 10.1981 41.5119C9.07062 40.487 8.04568 39.2912 7.12326 37.9245C6.20084 36.5579 5.4492 35.0033 4.86842 33.2608C4.32175 31.5183 4.04845 29.588 4.04845 27.4697C4.04845 23.6089 5.02213 20.141 6.96949 17.066C8.95102 13.9569 11.7354 11.3261 15.3227 9.17363C18.9099 7.02118 23.1976 5.36412 28.1855 4.20249C33.2077 3.04081 38.7764 2.46 44.8919 2.46ZM32.0803 68.3154C28.5272 66.4359 25.2303 65.0184 22.1897 64.0616C19.1491 63.1047 16.3647 62.6269 13.8365 62.6269C12.4016 62.6269 11.0692 62.7978 9.83934 63.1389C8.64355 63.4464 7.60153 63.8736 6.71327 64.4204C5.82502 64.9671 5.12464 65.5993 4.61221 66.3169C4.09971 67.034 3.84349 67.7857 3.84349 68.5717C3.84349 69.3235 4.06554 70.0747 4.50969 70.8265C4.98796 71.5783 5.68834 72.2447 6.61076 72.8256C7.56742 73.4059 8.74606 73.8843 10.1468 74.2602C11.5475 74.6361 13.1874 74.8241 15.0665 74.8241C18.2779 74.8241 21.3356 74.2602 24.2396 73.1325C27.1777 71.9713 29.7913 70.3652 32.0803 68.3154ZM145.796 63.549C145.66 63.8223 145.369 64.4033 144.925 65.2918C144.515 66.1461 143.968 67.1365 143.285 68.2642C142.636 69.3919 141.867 70.5702 140.979 71.8004C140.09 73.03 139.1 74.1577 138.007 75.1829C136.913 76.2075 135.735 77.0618 134.471 77.7452C133.206 78.3945 131.874 78.7191 130.473 78.7191C128.492 78.7191 126.818 78.087 125.451 76.8226C124.119 75.5588 123.145 73.9698 122.53 72.0567C121.369 74.0039 119.985 75.5588 118.379 76.72C116.773 77.8477 115.168 78.4116 113.562 78.4116C112.298 78.4116 111.153 78.1895 110.128 77.7452C109.104 77.2668 108.232 76.6175 107.515 75.798C106.797 74.9437 106.234 73.9527 105.824 72.8256C105.448 71.6979 105.26 70.4677 105.26 69.1356C105.26 66.4701 105.704 64.1299 106.593 62.1143C107.515 60.064 108.677 58.3559 110.078 56.989C111.478 55.6228 113.016 54.5976 114.689 53.9141C116.398 53.2313 118.038 52.8896 119.609 52.8896C120.668 52.8896 121.642 53.0433 122.53 53.3503C123.418 53.6237 124.17 53.9312 124.785 54.2729C125.434 54.6147 125.93 54.9393 126.271 55.2469C126.613 55.5202 126.8 55.674 126.835 55.7082C127.211 56.1524 127.398 56.6131 127.398 57.0916C127.398 57.6042 127.211 58.0655 126.835 58.4756C126.459 58.8514 126.015 59.0394 125.503 59.0394C124.956 59.0394 124.495 58.8514 124.119 58.4756C124.05 58.4072 123.897 58.2876 123.657 58.1167C123.418 57.9117 123.094 57.7067 122.684 57.5016C122.274 57.2966 121.779 57.1257 121.198 56.989C120.651 56.8182 120.019 56.7328 119.302 56.7328C118.243 56.7328 117.115 56.972 115.92 57.4504C114.724 57.9288 113.63 58.6806 112.64 59.7058C111.649 60.6962 110.812 61.9605 110.128 63.4977C109.48 65.0013 109.155 66.7947 109.155 68.8793C109.155 69.5285 109.223 70.1943 109.36 70.8778C109.497 71.527 109.736 72.1251 110.078 72.6718C110.419 73.218 110.88 73.6622 111.461 74.0039C112.042 74.3457 112.759 74.5165 113.613 74.5165C114.228 74.5165 114.929 74.3115 115.715 73.9014C116.535 73.4913 117.303 72.8598 118.02 72.0054C118.772 71.1511 119.439 70.0747 120.019 68.7767C120.634 67.4782 121.061 65.941 121.3 64.1641C121.369 63.6856 121.591 63.2927 121.967 62.9857C122.342 62.644 122.787 62.4731 123.299 62.4731C123.777 62.4731 124.187 62.6611 124.529 63.037C124.905 63.4123 125.11 63.8394 125.144 64.3178C125.178 64.9671 125.246 65.8898 125.349 67.0852C125.451 68.2471 125.673 69.409 126.015 70.5702C126.391 71.7321 126.937 72.7402 127.655 73.5939C128.372 74.4482 129.363 74.8753 130.627 74.8753C131.447 74.8753 132.25 74.6532 133.035 74.209C133.855 73.7647 134.641 73.1838 135.393 72.4668C136.179 71.715 136.913 70.8778 137.597 69.9551C138.314 68.9989 138.963 68.042 139.544 67.0852C140.125 66.129 140.637 65.2063 141.081 64.3178C141.526 63.4294 141.901 62.6611 142.209 62.0118C142.38 61.6359 142.619 61.3454 142.926 61.1404C143.268 60.9354 143.626 60.8329 144.002 60.8329C144.583 60.8329 145.045 61.055 145.386 61.4992C145.762 61.9093 145.95 62.3535 145.95 62.8319C145.95 63.0712 145.899 63.3097 145.796 63.549ZM147.641 56.784C147.504 57.7067 147.333 58.5781 147.128 59.3982C146.923 60.1836 146.718 60.8841 146.513 61.4992C146.342 62.0801 146.189 62.5586 146.053 62.9345C145.916 63.3098 145.83 63.5148 145.796 63.549C145.455 64.3349 144.857 64.7279 144.002 64.7279C143.524 64.7279 143.08 64.5571 142.67 64.2153C142.26 63.8394 142.055 63.3781 142.055 62.8319C142.055 62.6269 142.089 62.4731 142.158 62.3706C142.226 62.2681 142.329 62.0631 142.465 61.7555C142.602 61.448 142.773 60.9354 142.977 60.2177C143.182 59.5007 143.439 58.3901 143.746 56.8865C143.165 56.8865 142.568 56.8694 141.953 56.8353C141.338 56.8011 140.774 56.6815 140.261 56.4771C139.715 56.272 139.271 55.9474 138.929 55.5032C138.587 55.0589 138.417 54.4438 138.417 53.6578C138.417 53.0775 138.587 52.2915 138.929 51.3005C139.237 50.3095 139.663 49.3362 140.21 48.3794C140.757 47.4226 141.372 46.603 142.055 45.9196C142.739 45.202 143.421 44.8431 144.105 44.8431C144.891 44.8431 145.523 45.1336 146.001 45.7145C146.513 46.2955 146.906 47.0125 147.18 47.8668C147.453 48.6869 147.641 49.5583 147.743 50.4804C147.88 51.4031 147.948 52.2061 147.948 52.8896C148.529 52.8896 149.093 52.8896 149.639 52.8896C150.22 52.8554 150.767 52.8383 151.279 52.8383C153.227 52.8383 154.713 53.2648 155.738 54.1192C156.763 54.9735 157.275 56.3745 157.275 58.3218C157.275 59.1077 157.224 59.9273 157.121 60.7816C157.019 61.6359 156.899 62.5244 156.763 63.4464C156.626 64.3349 156.506 65.2234 156.404 66.1119C156.301 66.9998 156.25 67.8712 156.25 68.7255C156.25 69.9551 156.421 70.9803 156.763 71.8004C157.104 72.5864 157.531 73.218 158.044 73.6964C158.557 74.1748 159.103 74.5165 159.684 74.7216C160.264 74.8924 160.794 74.9779 161.273 74.9779C162.741 74.9779 164.125 74.4994 165.424 73.5426C166.722 72.5864 167.917 71.4416 169.011 70.1089C170.104 68.7426 171.078 67.3073 171.932 65.8044C172.82 64.3008 173.554 62.9857 174.135 61.858C174.306 61.5505 174.545 61.3113 174.853 61.1404C175.16 60.9695 175.485 60.8841 175.826 60.8841C176.441 60.8841 176.92 61.0891 177.261 61.4992C177.603 61.8751 177.774 62.3023 177.774 62.7807C177.774 63.1218 177.706 63.4294 177.569 63.7027C176.783 65.1038 175.86 66.6922 174.802 68.4692C173.777 70.2114 172.598 71.8517 171.266 73.3888C169.933 74.9266 168.43 76.2245 166.756 77.2839C165.116 78.3432 163.305 78.8729 161.324 78.8729C160.094 78.8729 158.932 78.6337 157.839 78.1553C156.746 77.711 155.789 77.0618 154.969 76.2075C154.183 75.3196 153.551 74.2431 153.073 72.9788C152.595 71.6808 152.356 70.2285 152.356 68.623C152.356 66.9143 152.527 65.2234 152.868 63.549C153.209 61.8409 153.38 60.2177 153.38 58.6806C153.38 58.0313 153.227 57.5529 152.919 57.2453C152.646 56.9036 152.014 56.7328 151.023 56.7328C150.545 56.7328 150.015 56.7328 149.435 56.7328C148.888 56.7328 148.29 56.7498 147.641 56.784ZM144.207 52.9921C144.207 52.7529 144.19 52.4453 144.156 52.0694C144.156 51.6593 144.122 51.2664 144.054 50.8905C144.019 50.5146 143.951 50.1899 143.849 49.9172C143.78 49.6438 143.695 49.5071 143.592 49.5071C143.49 49.5071 143.353 49.6438 143.182 49.9172C143.046 50.1558 142.892 50.4633 142.722 50.8392C142.551 51.1809 142.397 51.5568 142.26 51.9669C142.124 52.377 142.021 52.7187 141.953 52.9921H144.207ZM187.049 71.5441C187.63 72.8427 188.587 73.8843 189.919 74.6703C191.252 75.4221 192.755 75.798 194.429 75.798C194.942 75.798 195.778 75.7296 196.94 75.593C198.102 75.4221 199.434 74.9095 200.937 74.0552C202.474 73.1667 204.097 71.7833 205.805 69.9038C207.514 68.025 209.171 65.3772 210.777 61.9605C210.947 61.5846 211.187 61.3113 211.494 61.1404C211.801 60.9354 212.143 60.8329 212.519 60.8329C213.1 60.8329 213.561 61.0379 213.903 61.448C214.279 61.858 214.466 62.3023 214.466 62.7807C214.466 62.9857 214.398 63.2585 214.261 63.6002C213.065 66.0948 211.733 68.3325 210.264 70.3139C208.795 72.2617 207.206 73.9356 205.498 75.3367C203.79 76.703 201.996 77.7452 200.117 78.4628C198.273 79.2146 196.376 79.5899 194.429 79.5899C192.891 79.5899 191.44 79.3513 190.073 78.8729C188.741 78.3945 187.579 77.7623 186.588 76.9763C185.631 76.1568 184.863 75.2512 184.282 74.2602C183.735 73.2351 183.462 72.1934 183.462 71.134C183.462 70.9974 183.479 70.8094 183.513 70.5702C183.548 70.331 183.633 70.0747 183.77 69.8013C183.94 69.4944 184.163 69.221 184.436 68.9818C184.743 68.7084 185.154 68.4863 185.665 68.3154C187.066 67.9053 188.348 67.4098 189.509 66.8289C190.705 66.2144 191.73 65.531 192.584 64.7792C193.438 64.0274 194.104 63.2072 194.583 62.3194C195.061 61.3967 195.3 60.4057 195.3 59.347C195.3 58.4243 194.993 57.6725 194.378 57.0916C193.763 56.5112 193.011 56.2208 192.123 56.2208C191.201 56.2208 190.295 56.5448 189.407 57.1941C188.519 57.8092 187.647 58.6464 186.793 59.7058C185.973 60.7303 185.188 61.9264 184.436 63.2927C183.684 64.6254 182.984 66.0265 182.334 67.4953C181.72 68.9647 181.173 70.4335 180.695 71.9029C180.216 73.3376 179.824 74.6703 179.516 75.9005C179.413 76.2758 179.294 76.6859 179.157 77.1301C179.055 77.5744 178.884 77.9844 178.645 78.3603C178.406 78.7704 178.116 79.095 177.774 79.3342C177.432 79.607 176.988 79.7437 176.441 79.7437C175.929 79.7437 175.434 79.5216 174.955 79.0779C174.477 78.6679 174.238 77.9503 174.238 76.9251C174.238 76.72 174.238 75.9347 174.238 74.5678C174.272 73.2009 174.306 71.4245 174.34 69.2381C174.375 67.0169 174.409 64.4887 174.443 61.653C174.511 58.7831 174.562 55.7594 174.597 52.582C174.631 49.3704 174.682 46.0734 174.75 42.6909C174.819 39.3083 174.87 36.0112 174.904 32.7996C174.938 29.5879 174.973 26.5471 175.007 23.6772C175.075 20.7731 175.126 18.2106 175.16 15.9898C175.195 13.7348 175.212 11.9069 175.212 10.5061C175.246 9.07117 175.263 8.21698 175.263 7.94366C175.263 7.39702 175.468 6.95284 175.877 6.61117C176.287 6.23533 176.732 6.04745 177.21 6.04745C177.757 6.04745 178.218 6.23533 178.594 6.61117C178.969 6.95284 179.157 7.41411 179.157 7.99492C179.157 8.06326 179.14 8.74659 179.106 10.0449C179.106 11.309 179.089 13.0174 179.055 15.1698C179.021 17.3223 178.969 19.8335 178.902 22.7035C178.867 25.5734 178.816 28.6313 178.748 31.8771C178.714 35.0887 178.662 38.4028 178.594 41.8195C178.56 45.2361 178.509 48.5673 178.44 51.8131C178.406 55.0589 178.372 58.1509 178.338 61.0891C178.304 64.0274 178.269 66.6239 178.235 68.8793C178.782 67.1365 179.482 65.3088 180.336 63.3952C181.19 61.448 182.198 59.6545 183.36 58.0142C184.521 56.3745 185.819 55.0247 187.254 53.9654C188.724 52.9066 190.346 52.377 192.123 52.377C193.113 52.377 194.036 52.5649 194.89 52.9408C195.744 53.2819 196.479 53.7774 197.094 54.4267C197.743 55.0418 198.238 55.7765 198.58 56.6302C198.955 57.4846 199.143 58.4072 199.143 59.3982C199.143 60.9354 198.802 62.3535 198.119 63.6515C197.435 64.9159 196.53 66.0606 195.402 67.0852C194.275 68.0762 192.977 68.9476 191.508 69.6988C190.073 70.4506 188.587 71.0657 187.049 71.5441ZM305.121 42.2295C308.059 43.0497 310.553 43.9888 312.603 45.0482C314.687 46.1075 316.43 47.2175 317.83 48.3794C319.265 49.5071 320.392 50.6683 321.212 51.8644C322.033 53.0604 322.665 54.2046 323.109 55.2981C323.553 56.3916 323.826 57.4162 323.928 58.373C324.065 59.2957 324.133 60.0811 324.133 60.7303C324.133 63.1218 323.672 65.2576 322.75 67.1365C321.862 69.016 320.649 70.6727 319.112 72.108C317.574 73.5426 315.781 74.7557 313.73 75.7467C311.715 76.7371 309.597 77.5402 307.376 78.1553C305.155 78.8046 302.884 79.2659 300.56 79.5387C298.237 79.8462 296.034 80 293.949 80C290.567 80 287.066 79.6583 283.444 78.9754C279.857 78.292 276.218 77.1814 272.528 75.6442C271.708 75.3025 271.298 74.7045 271.298 73.8502C271.298 73.2692 271.503 72.8085 271.913 72.4668C272.323 72.0909 272.768 71.9029 273.246 71.9029C273.485 71.9029 273.742 71.9542 274.015 72.0567C277.192 73.3888 280.455 74.3969 283.803 75.0804C287.151 75.7638 290.516 76.1056 293.898 76.1056C298.51 76.1056 302.474 75.6613 305.787 74.7728C309.101 73.8843 311.817 72.7231 313.935 71.2878C316.088 69.8184 317.676 68.1787 318.702 66.3682C319.727 64.5229 320.239 62.6611 320.239 60.7816C320.239 58.6977 319.658 56.7669 318.496 54.9906C317.369 53.2142 315.746 51.6252 313.628 50.2241C311.544 48.8236 309.033 47.6276 306.095 46.6372C303.157 45.6462 299.894 44.9115 296.307 44.4331C293.949 44.8431 291.66 45.1336 289.44 45.3045C287.219 45.4753 285.169 45.5608 283.29 45.5608H282.111C281.872 45.5608 281.65 45.5437 281.445 45.5095C278.985 51.4201 276.047 56.5277 272.631 60.8329C269.249 65.138 265.627 68.7084 261.767 71.5441C257.94 74.3457 253.995 76.4296 249.929 77.7965C245.897 79.1292 242.02 79.795 238.296 79.795C234.436 79.795 230.882 79.2488 227.637 78.1553C224.425 77.0959 221.658 75.5759 219.335 73.5939C217.012 71.6125 215.201 69.221 213.903 66.4188C212.604 63.5831 211.955 60.4228 211.955 56.9378C211.955 53.3161 212.655 49.5754 214.056 45.7145C215.491 41.8195 217.61 37.8733 220.411 33.8758C223.076 30.1176 226.031 26.7522 229.276 23.7797C232.522 20.7731 235.921 18.1423 239.474 15.8873C243.062 13.6324 246.752 11.702 250.544 10.0962C254.336 8.4903 258.094 7.1749 261.818 6.14996C265.576 5.12497 269.232 4.39038 272.785 3.9462C276.372 3.46791 279.737 3.22876 282.88 3.22876C285.443 3.22876 287.885 3.31413 290.209 3.48499C292.532 3.65579 294.752 3.91203 296.871 4.25369C298.1 2.88709 299.091 1.91336 299.843 1.33249C300.594 0.717503 301.021 0.375836 301.124 0.307491C301.534 0.102517 301.893 2.60716e-08 302.2 2.60716e-08C302.679 2.60716e-08 303.106 0.136691 303.482 0.410011C303.857 0.68333 304.045 1.07625 304.045 1.58872C304.045 2.27205 303.806 2.85292 303.328 3.33121C302.849 3.7754 302.2 4.39038 301.38 5.17623C307.632 6.71369 312.415 9.037 315.729 12.1461C319.043 15.2211 320.7 19.0306 320.7 23.5747C320.7 26.0688 320.29 28.3067 319.47 30.2884C318.65 32.27 317.523 34.0125 316.088 35.5158C314.687 37.0191 313.03 38.3345 311.117 39.462C309.238 40.5553 307.239 41.4777 305.121 42.2295ZM296.358 40.5382C297.861 40.2649 299.399 39.9062 300.97 39.462C302.576 39.0178 304.13 38.4883 305.634 37.8733C307.171 37.2241 308.623 36.4724 309.99 35.6183C311.356 34.7299 312.535 33.705 313.525 32.5433C314.55 31.3475 315.353 30.015 315.934 28.5459C316.549 27.0768 316.856 25.4026 316.856 23.5235C316.856 19.6968 315.268 16.5365 312.091 14.0424C308.913 11.5482 304.352 9.70324 298.408 8.50738C296.7 10.6257 295.094 12.9661 293.591 15.5286C292.087 18.091 290.704 20.756 289.44 23.5235C288.176 26.2567 287.031 29.0413 286.006 31.8771C285.015 34.6787 284.195 37.3949 283.547 40.0257C284.229 39.9916 284.862 39.9745 285.443 39.9745C286.023 39.9745 286.519 39.9745 286.929 39.9745C288.261 39.9745 289.713 40.0257 291.284 40.1282C292.856 40.1966 294.547 40.3332 296.358 40.5382ZM294.052 7.78994C292.31 7.55073 290.516 7.37993 288.671 7.27741C286.826 7.1749 284.896 7.1237 282.88 7.1237C279.874 7.1237 276.68 7.34576 273.297 7.78994C269.915 8.23406 266.447 8.93448 262.894 9.89113C259.341 10.8478 255.754 12.0948 252.132 13.6324C248.545 15.1356 245.043 16.9636 241.627 19.116C238.244 21.2343 235.016 23.7114 231.941 26.5471C228.866 29.383 226.065 32.5775 223.537 36.1308C220.975 39.7524 219.044 43.3231 217.746 46.8416C216.448 50.3608 215.798 53.7091 215.798 56.8865C215.798 59.8589 216.328 62.5244 217.387 64.8817C218.48 67.239 220.018 69.2381 221.999 70.8778C223.981 72.4839 226.355 73.7306 229.123 74.619C231.89 75.4734 234.947 75.9005 238.296 75.9005C241.644 75.9005 245.128 75.3025 248.75 74.1065C252.371 72.8769 255.908 71.0144 259.358 68.5205C262.809 65.9923 266.089 62.8149 269.197 58.9881C272.306 55.1272 275.022 50.5487 277.345 45.2532C276.731 45.2532 276.099 45.0823 275.449 44.7406C274.8 44.3647 274.476 43.7838 274.476 42.9984C274.476 42.1783 274.869 41.5974 275.654 41.2556C276.44 40.8799 277.67 40.5724 279.344 40.3332C280.267 37.5316 281.206 34.7299 282.163 31.9283C283.12 29.1267 284.178 26.3593 285.34 23.6259C286.502 20.8927 287.783 18.2106 289.184 15.5798C290.584 12.9149 292.207 10.3182 294.052 7.78994ZM355.394 72.2105C354.54 72.2105 353.788 72.1421 353.139 72.0054C352.627 73.03 352.012 73.9868 351.294 74.8753C350.577 75.7296 349.739 76.4808 348.783 77.1301C347.861 77.7794 346.818 78.292 345.657 78.6679C344.495 79.0438 343.231 79.2317 341.865 79.2317C340.259 79.2317 338.79 78.9413 337.458 78.3603C336.125 77.8136 334.964 77.0447 333.973 76.0543C332.982 75.0291 332.214 73.816 331.667 72.4155C331.12 70.9803 330.847 69.4089 330.847 67.7003C330.847 65.5139 331.24 63.6173 332.026 62.0118C332.812 60.3715 333.716 59.0223 334.742 57.963C335.767 56.8694 336.791 56.067 337.816 55.5544C338.841 55.0076 339.61 54.7343 340.122 54.7343C340.703 54.7343 341.13 54.888 341.404 55.1956C341.711 55.5031 341.865 55.9132 341.865 56.4258C341.865 57.0061 341.677 57.4504 341.301 57.7579C340.959 58.0313 340.515 58.3047 339.968 58.5781C339.422 58.8514 338.841 59.2444 338.226 59.757C337.611 60.2348 337.03 60.8499 336.484 61.6017C335.972 62.3535 335.545 63.2414 335.203 64.2666C334.861 65.2918 334.69 66.4359 334.69 67.7003C334.69 68.828 334.861 69.8867 335.203 70.8778C335.545 71.8346 336.04 72.6718 336.689 73.3888C337.338 74.0723 338.107 74.619 338.995 75.0291C339.883 75.405 340.874 75.593 341.967 75.593C343.915 75.593 345.521 75.1487 346.784 74.2602C348.083 73.3376 349.074 72.1763 349.757 70.7752C347.741 69.7159 346.084 68.2129 344.786 66.2657C343.487 64.3178 342.839 62.1314 342.839 59.7058C342.839 57.7579 343.299 56.1695 344.222 54.9393C345.179 53.7091 346.426 53.0946 347.963 53.0946C348.886 53.0946 349.757 53.3161 350.577 53.7603C351.397 54.2046 352.114 54.9051 352.729 55.862C353.378 56.8182 353.891 58.0484 354.266 59.552C354.642 61.055 354.83 62.849 354.83 64.9329C354.83 66.0265 354.694 67.1706 354.42 68.3667C354.625 68.4008 354.83 68.4179 355.035 68.4179C355.24 68.4179 355.462 68.4179 355.702 68.4179C356.863 68.4179 357.905 68.2812 358.828 68.0079C359.75 67.7345 360.587 67.3244 361.339 66.7776C362.09 66.2315 362.756 65.531 363.337 64.6767C363.952 63.8223 364.533 62.8319 365.08 61.7043C365.182 61.4992 365.404 61.3113 365.746 61.1404C366.087 60.9354 366.429 60.8329 366.77 60.8329C367.215 60.8329 367.625 61.0208 368.001 61.3967C368.411 61.7384 368.616 62.1998 368.616 62.7807C368.616 63.0541 368.547 63.361 368.411 63.7027C368.274 64.0103 368.137 64.3008 368.001 64.5741C367.42 65.5993 366.736 66.5897 365.95 67.5465C365.199 68.4692 364.294 69.2893 363.234 70.0063C362.21 70.6898 361.048 71.2366 359.75 71.6466C358.452 72.0567 356.999 72.2447 355.394 72.2105ZM346.631 59.2957C346.631 59.9444 346.716 60.6278 346.887 61.3454C347.058 62.0631 347.314 62.7807 347.656 63.4977C348.032 64.1811 348.476 64.8475 348.988 65.4968C349.534 66.1119 350.167 66.641 350.884 67.0852C350.987 66.3682 351.038 65.6677 351.038 64.9842C351.038 64.0615 350.97 63.1218 350.833 62.1656C350.696 61.2087 350.491 60.3374 350.218 59.552C349.979 58.7318 349.671 58.0826 349.296 57.6041C348.92 57.0916 348.476 56.8353 347.963 56.8353C347.758 56.8353 347.485 56.989 347.143 57.2966C346.801 57.6042 346.631 58.2705 346.631 59.2957ZM406.486 26.5471C406.486 27.0938 406.299 27.538 405.923 27.8796C405.547 28.1871 405.086 28.3409 404.539 28.3409H378.557V28.9046C378.557 30.9888 378.404 33.2096 378.096 35.5671C377.789 37.9245 377.362 40.282 376.815 42.6396C376.302 44.9627 375.705 47.2346 375.021 49.4558C374.372 51.6764 373.689 53.7262 372.971 55.6057C372.288 57.4846 371.605 59.1248 370.922 60.5253C370.238 61.8922 369.623 62.9174 369.077 63.6002C369.521 65.1721 370.05 66.641 370.665 68.0079C371.28 69.3406 371.964 70.5189 372.715 71.5441C373.501 72.5351 374.338 73.3205 375.226 73.9014C376.114 74.4824 377.071 74.7728 378.096 74.7728C379.292 74.7728 380.47 74.2773 381.632 73.2863C382.828 72.2617 383.921 71.0657 384.912 69.6988C385.937 68.2983 386.825 66.8973 387.577 65.4968C388.363 64.0615 388.926 62.9174 389.268 62.0631C389.609 61.2429 390.207 60.8329 391.061 60.8329C391.642 60.8329 392.104 61.0379 392.445 61.448C392.821 61.858 393.009 62.3023 393.009 62.7807C393.009 63.0199 392.957 63.2585 392.855 63.4977C392.752 63.7369 392.496 64.2837 392.087 65.138C391.711 65.9923 391.198 66.9827 390.549 68.1104C389.934 69.2381 389.199 70.4335 388.346 71.6979C387.525 72.9281 386.586 74.0552 385.527 75.0804C384.502 76.1055 383.391 76.9593 382.196 77.6427C381 78.3262 379.736 78.6679 378.404 78.6679C376.046 78.6679 373.928 77.899 372.049 76.3612C370.17 74.8241 368.564 72.6718 367.232 69.9038C365.933 67.1365 364.943 63.8565 364.26 60.064C363.576 56.272 363.234 52.1207 363.234 47.6105C363.234 46.4834 363.251 45.1678 363.286 43.6642C363.32 42.127 363.388 40.5212 363.491 38.847C363.593 37.1387 363.747 35.3962 363.952 33.6196C364.157 31.8087 364.43 30.0492 364.772 28.3409H346.374C345.828 28.3409 345.367 28.1871 344.991 27.8796C344.615 27.538 344.427 27.0938 344.427 26.5471C344.427 26.0005 344.615 25.5734 344.991 25.2659C345.367 24.9243 345.828 24.7535 346.374 24.7535H365.643C365.985 23.5235 366.377 22.396 366.822 21.371C367.3 20.346 367.83 19.4577 368.411 18.706C369.026 17.9544 369.691 17.3735 370.409 16.9636C371.161 16.5194 371.981 16.2973 372.869 16.2973C373.723 16.2973 374.458 16.5194 375.073 16.9636C375.722 17.3735 376.268 17.9544 376.712 18.706C377.156 19.4577 377.498 20.346 377.737 21.371C378.011 22.396 378.216 23.5235 378.352 24.7535H404.539C405.086 24.7535 405.547 24.9243 405.923 25.2659C406.299 25.5734 406.486 26.0005 406.486 26.5471ZM367.898 58.4756C368.923 56.2208 369.845 53.7945 370.665 51.198C371.52 48.5673 372.237 45.9196 372.817 43.2547C373.432 40.5895 373.894 37.9758 374.201 35.4133C374.543 32.8508 374.714 30.4933 374.714 28.3409H368.667C368.189 30.4592 367.796 33.09 367.488 36.2333C367.215 39.3424 367.078 43.1351 367.078 47.6105C367.078 50.1045 367.146 52.2061 367.283 53.9141C367.42 55.5886 367.625 57.1087 367.898 58.4756ZM372.664 20.141C372.357 20.141 371.913 20.4827 371.332 21.166C370.751 21.8152 370.17 23.011 369.589 24.7535H374.509C374.338 23.3184 374.082 22.191 373.74 21.371C373.432 20.551 373.074 20.141 372.664 20.141ZM368.718 62.1656V62.2168V62.1656Z" fill="#F2F2F2"/>
</svg>
        