<svg width="39" height="80" viewBox="0 0 39 80" fill="none" xmlns="http://www.w3.org/2000/svg">
<path d="M4.42634 80C4.22616 80 4.02597 79.9467 3.84649 79.8353C3.36559 79.5397 3.15389 78.9268 3.34488 78.3745L15.363 43.5891L0.836793 39.2261C0.461731 39.1147 0.164903 38.8094 0.0498528 38.417C-0.0628959 38.0245 0.0176404 37.5957 0.27075 37.2808L29.735 0.42902C30.0847 -0.00946066 30.6784 -0.12332 31.157 0.140737C31.6356 0.40964 31.8726 0.998319 31.7207 1.54581L23.2255 32.5714L37.8299 36.9586C38.2072 37.07 38.5041 37.3777 38.6168 37.7726C38.7319 38.1675 38.6444 38.5987 38.389 38.9112L5.30072 79.5785C5.07523 79.8522 4.75309 80 4.42634 80ZM3.1746 37.4092L17.1808 41.6123C17.4891 41.7044 17.7445 41.9273 17.8918 42.2252C18.0367 42.5256 18.0574 42.8745 17.947 43.1894L7.67075 72.9334L35.4737 38.7634L21.4859 34.5651C21.1914 34.4779 20.9429 34.2696 20.7933 33.9886C20.6438 33.7075 20.6092 33.3757 20.6944 33.0656L28.0115 6.3473L3.1746 37.4092Z" fill="#F2F2F2"/>
</svg>
