<svg width="603" height="696" viewBox="0 0 603 696" fill="none" xmlns="http://www.w3.org/2000/svg">
<path d="M211.902 51.7086V237.652L110.908 109.993L211.902 51.7086Z" fill="white"/>
<path d="M229.604 41.4924V260.028L380.29 450.499L603 351.039V174L301.5 0L229.604 41.4924Z" fill="white"/>
<path d="M603 370.419L391.619 464.82L488.934 587.829L603 522V370.419Z" fill="white"/>
<path d="M473.439 596.771L374.942 472.268L229.604 537.174V654.508L301.5 696L473.439 596.771Z" fill="white"/>
<path d="M211.902 644.291V545.08L114.988 588.361L211.902 644.291Z" fill="white"/>
<path d="M96.0553 577.435L0 522V174L95.4142 118.935L211.902 266.179V525.699L96.0553 577.435Z" fill="white"/>
<path d="M229.604 517.794V288.555L363.613 457.947L229.604 517.794Z" fill="white"/>
</svg>