<svg  viewBox="0 0 111 60" fill="none" xmlns="http://www.w3.org/2000/svg">
<path d="M6.62768 29.5517C6.21183 29.7596 5.76998 29.9415 5.30214 30.0975C4.8603 30.2534 4.37947 30.3964 3.85965 30.5263C4.8473 30.7602 5.76998 31.0981 6.62768 31.54L28.1871 42.4951C28.577 42.6771 28.8499 42.885 29.0058 43.1189C29.1618 43.3268 29.2398 43.5737 29.2398 43.8596V46.3938L0 31.345V29.7466L29.2398 14.7368V17.271C29.2398 17.5569 29.1618 17.8038 29.0058 18.0117C28.8499 18.2196 28.577 18.4276 28.1871 18.6355L6.62768 29.5517Z" fill="#F2F2F2"/>
<path d="M45.1523 58.4795C44.9444 58.9993 44.6325 59.3762 44.2166 59.6101C43.8008 59.87 43.3719 60 42.9301 60H41.4096L65.6591 1.4425C66.049 0.480832 66.7507 0 67.7644 0H69.3628L45.1523 58.4795Z" fill="#F2F2F2"/>
<path d="M110.772 29.7466V31.345L81.532 46.3938V43.8596C81.532 43.5737 81.61 43.3268 81.766 43.1189C81.9219 42.885 82.1818 42.6771 82.5457 42.4951L104.144 31.54C104.56 31.332 104.989 31.1501 105.431 30.9942C105.899 30.8382 106.392 30.6953 106.912 30.5653C105.924 30.3314 105.002 29.9935 104.144 29.5517L82.5457 18.6355C81.8699 18.2716 81.532 17.8168 81.532 17.271V14.7368L110.772 29.7466Z" fill="#F2F2F2"/>
</svg>
