<svg width="85" height="60" viewBox="0 0 85 60" fill="none" xmlns="http://www.w3.org/2000/svg">
<path d="M84.3631 0C84.6815 0 84.8408 0.191082 84.8408 0.573247C84.8408 0.955415 84.6815 1.1465 84.3631 1.1465C82.3248 1.1465 80.6051 1.62421 79.2038 2.57962C77.8662 3.47134 76.7197 5.19108 75.7643 7.73885L56.0828 59.6178C56.0828 59.8726 55.7962 60 55.2229 60C54.6497 60 54.3312 59.8726 54.2675 59.6178L42.5159 32.1975L32.1974 59.6178C32.1338 59.8726 31.7834 60 31.1465 60C30.5096 60 30.1592 59.8726 30.0955 59.6178L8.12102 7.92994C7.16561 5.44586 6.0828 3.69427 4.87261 2.67516C3.72611 1.65605 2.2293 1.1465 0.382166 1.1465C0.127389 1.1465 0 0.955415 0 0.573247C0 0.191082 0.127389 0 0.382166 0L4.10828 0.0955402C5.89172 0.222931 7.13376 0.286626 7.83439 0.286626C9.55414 0.286626 11.6242 0.222931 14.0446 0.0955402L17.8662 0C18.121 0 18.2484 0.191082 18.2484 0.573247C18.2484 0.955415 18.121 1.1465 17.8662 1.1465C14.172 1.1465 12.3248 2.16561 12.3248 4.20382C12.3248 5.09554 12.5478 6.01911 12.9936 6.97452L32.9618 53.121L41.5605 30L32.1019 7.92994C31.0828 5.38216 30 3.63057 28.8535 2.67516C27.707 1.65605 26.1783 1.1465 24.2675 1.1465C24.0127 1.1465 23.8854 0.955415 23.8854 0.573247C23.8854 0.191082 24.0127 0 24.2675 0L27.9936 0.0955402C29.7771 0.222931 31.0828 0.286626 31.9108 0.286626C33.1847 0.286626 34.6497 0.222931 36.3057 0.0955402L38.7898 0C39.1083 0 39.2675 0.191082 39.2675 0.573247C39.2675 0.955415 39.1083 1.1465 38.7898 1.1465C37.6433 1.1465 36.8153 1.24204 36.3057 1.43312C35.8599 1.56051 35.6369 1.91083 35.6369 2.48408C35.6369 3.3758 36.1465 4.87261 37.1656 6.97452L44.4268 23.8854L50.5414 7.1656C51.1147 5.70064 51.4013 4.55414 51.4013 3.72611C51.4013 2.83439 51.051 2.19745 50.3503 1.81529C49.7134 1.36943 48.6624 1.1465 47.1975 1.1465C46.9427 1.1465 46.8153 0.955415 46.8153 0.573247C46.8153 0.191082 46.9427 0 47.1975 0L49.4904 0.0955402C50.8917 0.222931 52.0701 0.286626 53.0255 0.286626C54.1083 0.286626 55.4777 0.222931 57.1338 0.0955402L60.9554 0C61.1465 0 61.242 0.191082 61.242 0.573247C61.3057 0.955415 61.2102 1.1465 60.9554 1.1465C58.9172 1.1465 57.1975 1.62421 55.7962 2.57962C54.4586 3.47134 53.3121 5.19108 52.3567 7.73885L45.3822 26.1783L56.9427 53.121L74.0446 7.1656C74.4268 6.0828 74.6178 5.15924 74.6178 4.39491C74.6178 3.24841 74.0764 2.42038 72.9936 1.91083C71.9108 1.40127 70.0955 1.1465 67.5478 1.1465C67.293 1.1465 67.1338 0.955415 67.0701 0.573247C67.0701 0.191082 67.1975 0 67.4522 0L71.0828 0.0955402C73.121 0.222931 74.9045 0.286626 76.4331 0.286626C77.6433 0.286626 79.0127 0.222931 80.5414 0.0955402L84.3631 0Z" fill="#E0E0E0"/>
</svg>
