<?xml version="1.0" encoding="utf-8"?>
<!-- Generator: Adobe Illustrator 24.3.0, SVG Export Plug-In . SVG Version: 6.00 Build 0)  -->
<svg version="1.1" id="Layer_1" xmlns="http://www.w3.org/2000/svg" xmlns:xlink="http://www.w3.org/1999/xlink" x="0px" y="0px"
	 viewBox="0 0 512 512" style="enable-background:new 0 0 512 512;" xml:space="preserve">
<style type="text/css">
	.st0{fill:#47848F;}
</style>
<g id="XMLID_1_">
	<path id="XMLID_2_" class="st0" d="M107.73,279.73h28.2c0.84,0,1.54-0.7,1.54-1.54s-0.7-1.54-1.54-1.54h-26.65v-17.39h23.57
		c0.84,0,1.54-0.7,1.54-1.54s-0.7-1.54-1.54-1.54h-23.57v-16.97h26.23c0.84,0,1.54-0.7,1.54-1.54c0-0.84-0.7-1.54-1.54-1.54h-27.91
		c-0.84,0-1.54,0.7-1.54,1.54v39.98C106.19,278.88,106.89,279.73,107.73,279.73z M156.97,278.04c0,0.84,0.7,1.54,1.54,1.54h25.67
		c0.84,0,1.54-0.7,1.54-1.54c0-0.84-0.7-1.54-1.54-1.54h-24.13v-38.86c0-0.84-0.7-1.54-1.54-1.54c-0.84,0-1.54,0.7-1.54,1.54V278.04
		z M206.34,279.73h28.2c0.84,0,1.54-0.7,1.54-1.54s-0.7-1.54-1.54-1.54h-26.65v-17.39h23.57c0.84,0,1.54-0.7,1.54-1.54
		s-0.7-1.54-1.54-1.54h-23.57v-16.97h26.23c0.84,0,1.54-0.7,1.54-1.54c0-0.84-0.7-1.54-1.54-1.54H206.2c-0.84,0-1.54,0.7-1.54,1.54
		v39.98C204.66,278.88,205.36,279.73,206.34,279.73z M275.08,280.43c7.15,0,11.92-2.67,16.41-6.73c0.28-0.28,0.56-0.56,0.56-1.12
		c0-0.84-0.7-1.54-1.54-1.54c-0.56,0-0.84,0.28-1.12,0.56c-4.07,3.93-8.14,6.03-14.03,6.03c-10.24,0-18.24-8.56-18.24-19.5v-0.14
		c0-10.8,7.86-19.36,18.24-19.36c6.03,0,10.24,2.38,13.75,5.61c0.28,0.28,0.7,0.42,1.12,0.42c0.84,0,1.68-0.7,1.68-1.54
		c0-0.56-0.28-0.98-0.56-1.26c-4.21-3.65-8.7-6.03-15.85-6.03c-12.48,0-21.6,10.1-21.6,22.3v0.14
		C253.62,270.61,262.73,280.43,275.08,280.43z M322.49,278.32c0,0.84,0.7,1.54,1.54,1.54s1.54-0.7,1.54-1.54v-38.86h13.89
		c0.84,0,1.54-0.7,1.54-1.54c0-0.84-0.7-1.54-1.54-1.54H308.6c-0.84,0-1.54,0.7-1.54,1.54c0,0.84,0.7,1.54,1.54,1.54h13.89V278.32z
		 M360.08,278.32c0,0.84,0.7,1.54,1.54,1.54s1.54-0.7,1.54-1.54v-16.55h14.17l13.33,17.25c0.42,0.56,0.84,0.84,1.4,0.84
		c0.84,0,1.68-0.84,1.68-1.68c0-0.42-0.14-0.7-0.56-1.12l-12.34-15.85c7.29-0.98,12.62-5.05,12.62-12.34v-0.14
		c0-3.09-1.26-6.03-3.23-8c-2.52-2.52-6.87-4.21-12.2-4.21h-16.55c-0.84,0-1.54,0.7-1.54,1.54v40.26H360.08z M363.31,258.97v-19.5
		h14.73c7.86,0,12.34,3.65,12.34,9.4v0.14c0,6.17-5.33,9.82-12.62,9.82h-14.45V258.97z M433.87,280.43
		c13.05,0,21.74-10.52,21.74-22.3v-0.14c0-11.78-8.56-22.16-21.6-22.16c-13.05,0-21.74,10.52-21.74,22.3v0.14
		C412.27,270.05,420.82,280.43,433.87,280.43z M434.01,277.48c-10.66,0-18.38-8.7-18.38-19.5v-0.14c0-10.66,7.72-19.36,18.38-19.36
		s18.38,8.7,18.38,19.5v0.14C452.38,268.93,444.67,277.48,434.01,277.48z M476.09,278.46c0,0.84,0.7,1.54,1.54,1.54
		c0.84,0,1.54-0.7,1.54-1.54v-37.17l29.74,37.59c0.56,0.56,0.98,0.98,1.54,0.98h0.28c0.7,0,1.26-0.56,1.26-1.4v-40.68
		c0-0.84-0.7-1.54-1.54-1.54c-0.84,0-1.54,0.7-1.54,1.54v36.47l-29.18-36.89c-0.42-0.56-0.98-0.98-1.54-0.98h-0.56
		c-0.84,0-1.54,0.7-1.54,1.54L476.09,278.46L476.09,278.46z"/>
	<path id="XMLID_13_" class="st0" d="M25.39,233.72c-10.24-1.82-18.24,0.14-21.46,5.61c-2.38,4.21-1.68,9.68,1.68,15.57
		c0.28,0.56,0.98,0.7,1.4,0.42c0.56-0.28,0.7-0.98,0.42-1.4c-3.09-5.33-3.65-10.1-1.68-13.47c2.67-4.63,9.82-6.31,19.22-4.63
		c0.56,0.14,1.12-0.28,1.26-0.84C26.37,234.42,25.95,233.86,25.39,233.72z M10.94,262.19c4.07,4.49,9.54,8.84,15.57,12.34
		c14.73,8.56,30.58,10.8,38.29,5.47c0.42-0.28,0.56-0.98,0.28-1.4s-0.98-0.56-1.4-0.28c-7.01,4.77-21.88,2.52-36.05-5.61
		c-5.89-3.37-11.08-7.57-15.15-11.92c-0.42-0.42-0.98-0.42-1.54,0C10.52,261.07,10.52,261.63,10.94,262.19z"/>
	<path id="XMLID_16_" class="st0" d="M62.28,260.79c6.73-7.86,8.98-15.85,5.75-21.32c-2.38-4.07-7.29-6.31-14.03-6.31
		c-0.56,0-0.98,0.42-1.12,0.98c0,0.56,0.42,0.98,0.98,1.12c5.89,0.14,10.24,1.96,12.2,5.33c2.67,4.63,0.56,11.64-5.61,18.94
		c-0.42,0.42-0.28,1.12,0.14,1.54C61.3,261.35,61.86,261.35,62.28,260.79z M45.17,234.14c-6.03,1.26-12.48,3.79-18.66,7.43
		c-15.29,8.84-25.25,21.74-23.85,31.28c0.14,0.56,0.56,0.98,1.12,0.84c0.56-0.14,0.98-0.56,0.84-1.12
		c-1.26-8.42,8.28-20.62,22.86-29.18c6.03-3.51,12.2-5.89,17.96-7.15c0.56-0.14,0.98-0.7,0.84-1.26
		C46.29,234.42,45.73,234,45.17,234.14z"/>
	<path id="XMLID_19_" class="st0" d="M20.34,279.31c3.51,9.68,9.26,15.71,15.57,15.71c4.63,0,8.98-3.23,12.34-8.84
		c0.28-0.56,0.14-1.12-0.42-1.4c-0.56-0.28-1.12-0.14-1.4,0.42c-3.09,5.05-6.73,7.86-10.66,7.86c-5.33,0-10.38-5.33-13.61-14.31
		c-0.14-0.56-0.84-0.84-1.4-0.7C20.48,278.18,20.2,278.74,20.34,279.31z M52.32,277.34c1.82-5.75,2.81-12.48,2.81-19.36
		c0-17.25-6.03-32.26-14.73-36.05c-0.56-0.28-1.12,0-1.4,0.56c-0.28,0.56,0,1.12,0.56,1.4c7.72,3.37,13.47,17.53,13.47,34.23
		c0,6.73-0.98,13.19-2.67,18.8c-0.14,0.56,0.14,1.12,0.7,1.26C51.48,278.18,52.04,277.9,52.32,277.34z"/>
	<path id="XMLID_22_" class="st0" d="M71.96,276.36c0-2.81-2.24-5.05-5.05-5.05c-2.81,0-5.05,2.24-5.05,5.05s2.24,5.05,5.05,5.05
		S71.96,279.17,71.96,276.36z M69.86,276.36c0,1.54-1.26,2.95-2.95,2.95c-1.54,0-2.95-1.26-2.95-2.95c0-1.54,1.26-2.95,2.95-2.95
		C68.59,273.41,69.86,274.68,69.86,276.36z"/>
	<path id="XMLID_25_" class="st0" d="M5.05,281.41c2.81,0,5.05-2.24,5.05-5.05s-2.24-5.05-5.05-5.05S0,273.55,0,276.36
		S2.24,281.41,5.05,281.41z M5.05,279.31c-1.54,0-2.95-1.26-2.95-2.95c0-1.54,1.26-2.95,2.95-2.95c1.54,0,2.95,1.26,2.95,2.95
		C7.86,277.9,6.59,279.31,5.05,279.31z"/>
	<path id="XMLID_28_" class="st0" d="M36.05,226.98c2.81,0,5.05-2.24,5.05-5.05s-2.24-5.05-5.05-5.05S31,219.13,31,221.93
		S33.24,226.98,36.05,226.98z M36.05,224.88c-1.54,0-2.95-1.26-2.95-2.95c0-1.54,1.26-2.95,2.95-2.95c1.54,0,2.95,1.26,2.95,2.95
		C39,223.62,37.59,224.88,36.05,224.88z"/>
	<circle id="XMLID_31_" class="st0" cx="36.05" cy="257.98" r="3.65"/>
</g>
</svg>
