<svg xmlns="http://www.w3.org/2000/svg" xmlns:xlink="http://www.w3.org/1999/xlink" width="16" height="16">
  <use fill="#333" xlink:href="#path0_fill"/>
  <use fill="#333" transform="translate(6.8 2)" xlink:href="#path1_fill"/>
  <use fill="#333" transform="translate(9.2 4)" xlink:href="#path2_fill"/>
  <use fill="#333" transform="translate(2.2 2.4)" xlink:href="#path3_fill"/>
  <use fill="#333" transform="translate(2 6.6)" xlink:href="#path4_fill"/>
  <use fill="#333" transform="translate(10.3 8.7)" xlink:href="#path5_fill"/>
  <use fill="#333" transform="translate(4.1 9)" xlink:href="#path6_fill"/>
  <defs>
    <path id="path0_fill" d="M8 0a8 8 0 1 0 0 16A8 8 0 0 0 8 0zm0 15A7 7 0 1 1 8 1a7 7 0 0 1 0 14z"/>
    <path id="path1_fill" d="M1.2 0A6 6 0 0 0 0 .1l2 3.2c1-.5 2.1-1.1 3-2A6 6 0 0 0 1.3 0z"/>
    <path id="path2_fill" d="M3.4 0C2.4.9 1.2 1.6 0 2.1l.7 1.7c1.4-.3 2.7-.3 4.1 0A6 6 0 0 0 3.4 0z"/>
    <path id="path3_fill" d="M3.6 0A6 6 0 0 0 0 4.2c2 .1 3.9-.2 5.7-1L3.7 0z"/>
    <path id="path4_fill" d="M6.3 0A15 15 0 0 1 .8 1H0v.4a6 6 0 0 0 1.4 3.8C3 3.4 4.8 2.2 7 1.5L6.3 0z"/>
    <path id="path5_fill" d="M0 .2c.5 1.3.9 2.7 1.1 4a6 6 0 0 0 2.6-4C2.4-.1 1.2 0 0 .2z"/>
    <path id="path6_fill" d="M5.2 0C3.2.6 1.3 1.8 0 3.5a6 6 0 0 0 6.4.9C6 2.9 5.7 1.4 5.2 0z"/>
  </defs>
</svg>