<svg xmlns="http://www.w3.org/2000/svg" xmlns:xlink="http://www.w3.org/1999/xlink" width="20" height="16">
  <use fill="#333" xlink:href="#path0_fill"/>
  <defs>
    <path id="path0_fill" d="M0 8.2c0 1 0 1.7.3 2.5A5.3 5.3 0 0 0 2 14c.4.4 1 .7 1.5 1l1.8.6a15 15 0 0 0 4.4.4 26.5 26.5 0 0 0 4.5-.4 9 9 0 0 0 1.8-.7c.5-.2 1-.5 1.5-1 .5-.4.8-.8 1.1-1.4.3-.5.6-1.1.7-1.8.2-.8.3-1.6.3-2.5a6 6 0 0 0-1.6-4 4.7 4.7 0 0 0 .3-1.4V1.5L17.8 0h-.6a5.7 5.7 0 0 0-2 .7l-1.6 1c-1-.3-2.2-.5-3.9-.5-1.6 0-2.9.2-3.8.4A13.3 13.3 0 0 0 3.2.2 4.6 4.6 0 0 0 2 0h-.1a6.6 6.6 0 0 0-.5 2.8A7.2 7.2 0 0 0 1.6 4 5.9 5.9 0 0 0 0 8.2zm2.4 2.5c0-1 .4-1.8 1.3-2.6.2-.2.5-.4.9-.5l1-.2H7a150 150 0 0 1 4.3 0 149.5 149.5 0 0 1 2.7 0c.4 0 .8 0 1.1.2l.9.5c.8.8 1.2 1.6 1.2 2.6 0 .5 0 1-.2 1.4a2.6 2.6 0 0 1-1.4 1.8 6.2 6.2 0 0 1-2.5.8 19.8 19.8 0 0 1-3.2 0 61.3 61.3 0 0 1-4.6-.3L4 13.9l-.8-.7c-.3-.3-.4-.6-.6-1l-.2-1.5zm9.9-.2c0 1 .6 1.8 1.2 1.8.7 0 1.3-.8 1.3-1.8s-.6-1.9-1.3-1.9c-.6 0-1.2.8-1.2 1.9zm-7.4 0c0 1 .6 1.8 1.3 1.8.6 0 1.2-.8 1.2-1.8s-.6-1.9-1.2-1.9c-.7 0-1.3.8-1.3 1.9z"/>
  </defs>
</svg>