<svg xmlns="http://www.w3.org/2000/svg" xmlns:xlink="http://www.w3.org/1999/xlink" width="16" height="16">
  <use fill="#333" xlink:href="#path0_fill"/>
  <use fill="#333" transform="translate(3.9 3.9)" xlink:href="#path1_fill"/>
  <use fill="#333" transform="translate(11.3 2.7)" xlink:href="#path2_fill"/>
  <defs>
    <path id="path0_fill" d="M11.6 0H4.4C2 0 0 2 0 4.4v7.2C0 14 2 16 4.4 16h7.2c2.4 0 4.4-2 4.4-4.4V4.4C16 2 14 0 11.6 0zm3 11.6a3 3 0 0 1-3 3H4.4a3 3 0 0 1-3-3V4.4a3 3 0 0 1 3-3h7.2a3 3 0 0 1 3 3v7.2z"/>
    <path id="path1_fill" d="M4.1 0a4.1 4.1 0 1 0 0 8.3 4.1 4.1 0 0 0 0-8.3zm0 6.8a2.7 2.7 0 1 1 0-5.4 2.7 2.7 0 0 1 0 5.4z"/>
    <path id="path2_fill" d="M1 0a1 1 0 0 0-1 1 1 1 0 0 0 1 1c.3 0 .6 0 .8-.2a1 1 0 0 0 0-1.5A1 1 0 0 0 1 0z"/>
  </defs>
</svg>