<svg xmlns="http://www.w3.org/2000/svg" xmlns:xlink="http://www.w3.org/1999/xlink" width="23" height="16">
  <use fill="#333" xlink:href="#path0_fill"/>
  <defs>
    <path id="path0_fill" d="M22.4 6.1a24.5 24.5 0 0 0-.4-3.5 3 3 0 0 0-.9-1.6c-.4-.4-1-.6-1.5-.7A82 82 0 0 0 2.8.3c-.6 0-1.1.3-1.5.7a3 3 0 0 0-.9 1.6A13.8 13.8 0 0 0 0 6a106.4 106.4 0 0 0 .4 7.3c.1.6.4 1.1.9 1.6.4.4 1 .6 1.5.7a82 82 0 0 0 16.8 0c.6 0 1.1-.3 1.5-.7.5-.5.8-1 .9-1.6a13.9 13.9 0 0 0 .4-3.5 108 108 0 0 0 0-3.8zm-6.8 2.6l-6.4 4-.4.1-.4-.1A.7.7 0 0 1 8 12V4c0-.3.1-.5.4-.7.3-.1.6-.1.8 0l6.4 4c.3.2.4.4.4.7 0 .3-.1.5-.4.7z"/>
  </defs>
</svg>